<svg xmlns="http://www.w3.org/2000/svg"
    xmlns:xlink="http://www.w3.org/1999/xlink" width="46.60377502441406" height="28" viewBox="0 0 46.60377502441406 28" fill="none">
    <path fill="rgba(255, 19, 3, 1)" d="M3.4375 -1.19209e-07L36.2983 -1.19209e-07C38.1968 -1.19209e-07 39.7358 1.53902 39.7358 3.4375L39.7358 24.5625C39.7358 26.461 38.1968 28 36.2983 28L3.4375 28C1.53902 28 0 26.461 0 24.5625L0 3.4375C0 1.53902 1.53902 -1.19209e-07 3.4375 -1.19209e-07L3.4375 2C2.64359 2 2 2.64359 2 3.4375L2 24.5625C2 25.3564 2.64359 26 3.4375 26L36.2983 26C37.0923 26 37.7358 25.3564 37.7358 24.5625L37.7358 3.4375C37.7358 2.64359 37.0922 2 36.2983 2L3.4375 2L3.4375 -1.19209e-07Z">
    </path>
    <path d="M39 21.6875L45.6038 24.9375L45.6038 3L39 6.25L39 21.6875Z" stroke="rgba(255, 19, 3, 1)" stroke-width="2">
    </path>
    <rect x="5.717010498046875" y="3.4375" width="10.377365112304688" height="4" rx="2" fill="#FF1303">
    </rect>
</svg>
